<svg width="109" height="26" viewBox="0 0 109 26" fill="none" xmlns="http://www.w3.org/2000/svg">
<rect x="6.93414" y="6.93414" width="11.8681" height="11.8681" fill="white"/>
<path d="M1.59344 1.59344L24.7363 24.7363" stroke="white" stroke-width="2" stroke-linecap="round"/>
<path d="M8.12446 7.59562H18.7124V18.1965L25.3 24.7921V1H1.53688L8.12446 7.59562ZM18.1755 18.734H7.58758V8.13315L1 1.53753V25.3297H24.7631L18.1755 18.734Z" fill="url(#paint0_linear_1_44)"/>
<path d="M30.7 21.1597H33.4082V14.5699H40.7122V12.1542H33.4082V7.50351H41.4672L41.5 5.05493H30.7V21.1597ZM43.5845 14.4877C43.5845 18.7111 46.2599 21.2747 50.593 21.2747C54.9426 21.2747 57.5851 18.7111 57.5851 14.4877V5.05493H54.8769V14.4877C54.8769 17.2321 53.2356 18.8426 50.6258 18.8426C47.9833 18.8426 46.2927 17.2157 46.2927 14.4877V5.05493H43.5845V14.4877ZM59.5547 7.50351H64.6429V21.1597H67.3511V7.50351H72.4556V5.05493H59.5547V7.50351ZM74.7699 21.1597H77.4781V5.05493H74.7699V21.1597ZM80.4489 21.1597H94.0228V18.7275H84.1255L93.9079 7.01051V5.05493H80.7444V7.50351H90.2641L80.4489 19.2041V21.1597ZM97.01 21.1597H108.778V18.7275H99.7182V14.2905H107.58V11.8419H99.7182V7.50351H108.499V5.05493H97.01V21.1597Z" fill="#00800F"/>
<defs>
<linearGradient id="paint0_linear_1_44" x1="8.12088" y1="8.41758" x2="24.4542" y2="24.1276" gradientUnits="userSpaceOnUse">
<stop stop-color="#007D06"/>
<stop offset="0.598958" stop-color="#16BB21"/>
<stop offset="0.994792" stop-color="#03E512"/>
</linearGradient>
</defs>
</svg>
